<?xml version="1.0" encoding="utf-8"?>
<!-- Generator: Adobe Illustrator 26.3.1, SVG Export Plug-In . SVG Version: 6.00 Build 0)  -->
<svg version="1.1" id="Слой_1" xmlns="http://www.w3.org/2000/svg" xmlns:xlink="http://www.w3.org/1999/xlink" x="0px" y="0px"
	 viewBox="0 0 16 128" enable-background="new 0 0 16 128" xml:space="preserve">
<g>
	<path fill="#9B5F36" d="M10.41,17.55c-0.02,0.97-0.06,1.95-0.06,2.92c-0.01,33.69-0.01,67.38-0.03,101.07
		c0,0.7,0.44,1.87-0.39,2.04c-1.27,0.26-2.64,0.07-3.96-0.04c-0.34-0.03-0.24-0.59-0.25-0.92c-0.02-0.56-0.01-1.11-0.01-1.67
		C5.72,86.36,5.71,51.77,5.7,17.17C7.27,17.3,8.84,17.43,10.41,17.55z"/>
	<path fill="#E95C2B" d="M10.44,17.55c-1.57-0.13-3.17,0.03-4.74-0.1c-1.82-2.58-2.75-5.54-2.61-8.66C3.27,5.11,6.11,3.2,9.6,4.01
		c2.49,0.58,4,4.06,3.31,7.14C12.37,13.52,10.96,15.2,10.44,17.55z"/>
</g>
</svg>
